<?xml version="1.0" encoding="UTF-8"?>
<svg id="Layer_1" xmlns="http://www.w3.org/2000/svg" version="1.1" viewBox="0 0 132 150">
  <!-- Generator: Adobe Illustrator 29.8.1, SVG Export Plug-In . SVG Version: 2.1.1 Build 2)  -->
  <defs>
    <style>
      .st0 {
        fill: none;
        stroke: #010101;
        stroke-linecap: round;
        stroke-miterlimit: 10;
        stroke-width: 7.83px;
      }
    </style>
  </defs>
  <path class="st0" d="M11.88,89.6V21.37s1.79-13.82,14.6-14.09c12.82-.27,41.78,0,41.78,0,0,0,23.86,1.47,36.78,24.6"/>
  <path class="st0" d="M43.19,73.86v-17.86c0-3.94,1.3-7.77,3.75-10.85,3.09-3.88,8.28-7.97,16.33-7.52,16.06.9,24.16,25.38,6.55,33.33-1.34.6-2.76.99-4.21,1.22-8.52,1.35-48.91,9.77-53.73,48.34-1.03,8.24,1.03,21.69,15.33,22.3,14.3.61,16.97-13.15,16.24-25.78-.46-7.99,0-32.81,0-32.81"/>
  <path class="st0" d="M60.08,104.1s51.44-1.7,51.44-47.32l-7.78-7.78c-1.11-1.11-1.11-2.91,0-4.02l6.18-6.18c1.11-1.11,2.91-1.11,4.02,0l5.57,5.57c1.11,1.11,1.11,2.91,0,4.02l-8.08,8.08"/>
</svg>